<svg xmlns="http://www.w3.org/2000/svg" viewBox="0 0 900 1020" width="900" height="1020">
  <defs>
    <linearGradient id="bg-g" x1="0" y1="0" x2="1" y2="1">
      <stop offset="0%" stop-color="#0d1117"/>
      <stop offset="100%" stop-color="#161b22"/>
    </linearGradient>
    <linearGradient id="g-blue"   x1="0" y1="0" x2="0" y2="1">
      <stop offset="0%" stop-color="#1f6feb"/><stop offset="100%" stop-color="#0d419d"/>
    </linearGradient>
    <linearGradient id="g-orange" x1="0" y1="0" x2="0" y2="1">
      <stop offset="0%" stop-color="#db6d28"/><stop offset="100%" stop-color="#7d2f00"/>
    </linearGradient>
    <linearGradient id="g-purple" x1="0" y1="0" x2="0" y2="1">
      <stop offset="0%" stop-color="#8957e5"/><stop offset="100%" stop-color="#4e2c9e"/>
    </linearGradient>
    <linearGradient id="g-green"  x1="0" y1="0" x2="0" y2="1">
      <stop offset="0%" stop-color="#2ea043"/><stop offset="100%" stop-color="#0f4423"/>
    </linearGradient>
    <linearGradient id="g-gray"   x1="0" y1="0" x2="0" y2="1">
      <stop offset="0%" stop-color="#3d444d"/><stop offset="100%" stop-color="#21262d"/>
    </linearGradient>
    <linearGradient id="g-teal"   x1="0" y1="0" x2="0" y2="1">
      <stop offset="0%" stop-color="#1b7a6d"/><stop offset="100%" stop-color="#0a4541"/>
    </linearGradient>
    <linearGradient id="g-amber"  x1="0" y1="0" x2="0" y2="1">
      <stop offset="0%" stop-color="#c98e00"/><stop offset="100%" stop-color="#7a5500"/>
    </linearGradient>
    <linearGradient id="g-cyan"   x1="0" y1="0" x2="0" y2="1">
      <stop offset="0%" stop-color="#0e7490"/><stop offset="100%" stop-color="#0a4d60"/>
    </linearGradient>
    <filter id="shadow" x="-15%" y="-20%" width="130%" height="150%">
      <feDropShadow dx="0" dy="4" stdDeviation="7" flood-color="#010409" flood-opacity="0.75"/>
    </filter>
    <marker id="arr"        markerWidth="9" markerHeight="7" refX="8" refY="3.5" orient="auto">
      <polygon points="0 0,9 3.5,0 7" fill="#58a6ff"/>
    </marker>
    <marker id="arr-orange" markerWidth="9" markerHeight="7" refX="8" refY="3.5" orient="auto">
      <polygon points="0 0,9 3.5,0 7" fill="#f0883e"/>
    </marker>
    <marker id="arr-dim"    markerWidth="9" markerHeight="7" refX="8" refY="3.5" orient="auto">
      <polygon points="0 0,9 3.5,0 7" fill="#6e7681"/>
    </marker>
    <marker id="arr-green"  markerWidth="9" markerHeight="7" refX="8" refY="3.5" orient="auto">
      <polygon points="0 0,9 3.5,0 7" fill="#3fb950"/>
    </marker>
    <marker id="arr-purple" markerWidth="9" markerHeight="7" refX="8" refY="3.5" orient="auto">
      <polygon points="0 0,9 3.5,0 7" fill="#bc8cff"/>
    </marker>
    <pattern id="grid" width="32" height="32" patternUnits="userSpaceOnUse">
      <path d="M 32 0 L 0 0 0 32" fill="none" stroke="#21262d" stroke-width="0.8"/>
    </pattern>
  </defs>
  <rect width="900" height="1020" fill="url(#bg-g)"/>
  <rect width="900" height="1020" fill="url(#grid)" opacity="0.45"/>
  <text x="450" y="46" text-anchor="middle" fill="#e6edf3" font-size="22" font-family="-apple-system, BlinkMacSystemFont, 'Segoe UI', system-ui, sans-serif" font-weight="800">⚡ RAG in Two Phases</text>
  <text x="450" y="68" text-anchor="middle" fill="#8b949e" font-size="13" font-family="-apple-system, BlinkMacSystemFont, 'Segoe UI', system-ui, sans-serif">Index once · Answer any question</text>
  <rect x="540" y="88" width="258" height="315" rx="16" fill="none" stroke="#f0883e" stroke-width="1.5" stroke-dasharray="7 4" opacity="0.55"/>
  <rect x="550" y="78" width="206" height="20" rx="5" fill="#0d1117"/>
  <text x="557" y="92" fill="#f0883e" font-size="12" font-family="-apple-system, BlinkMacSystemFont, 'Segoe UI', system-ui, sans-serif" font-weight="700">⚙️ Phase 1 — Build Index</text>
  <rect x="80" y="88" width="258" height="840" rx="16" fill="none" stroke="#58a6ff" stroke-width="1.5" stroke-dasharray="7 4" opacity="0.55"/>
  <rect x="90" y="78" width="238" height="20" rx="5" fill="#0d1117"/>
  <text x="97" y="92" fill="#58a6ff" font-size="12" font-family="-apple-system, BlinkMacSystemFont, 'Segoe UI', system-ui, sans-serif" font-weight="700">💬 Phase 2 — Answer Questions</text>
  <rect x="565" y="93" width="210" height="54" rx="12" fill="url(#g-blue)" stroke="#58a6ff" stroke-width="1.5" filter="url(#shadow)"/>
  <text x="670" y="120" text-anchor="middle" dominant-baseline="middle" fill="#e6edf3" font-size="14" font-family="-apple-system, BlinkMacSystemFont, 'Segoe UI', system-ui, sans-serif" font-weight="700">📄 Your Documents</text>
  <rect x="565" y="213" width="210" height="54" rx="12" fill="url(#g-orange)" stroke="#f0883e" stroke-width="1.5" filter="url(#shadow)"/>
  <text x="670" y="240" text-anchor="middle" dominant-baseline="middle" fill="#e6edf3" font-size="14" font-family="-apple-system, BlinkMacSystemFont, 'Segoe UI', system-ui, sans-serif" font-weight="700">✂️ Chunk + Structure</text>
  <rect x="565" y="338" width="210" height="54" rx="12" fill="url(#g-gray)" stroke="#8b949e" stroke-width="1.5" filter="url(#shadow)"/>
  <text x="670" y="365" text-anchor="middle" dominant-baseline="middle" fill="#e6edf3" font-size="14" font-family="-apple-system, BlinkMacSystemFont, 'Segoe UI', system-ui, sans-serif" font-weight="700">🧠 Embedding Model</text>
  <rect x="105" y="93" width="210" height="54" rx="12" fill="url(#g-blue)" stroke="#58a6ff" stroke-width="1.5" filter="url(#shadow)"/>
  <text x="210" y="120" text-anchor="middle" dominant-baseline="middle" fill="#e6edf3" font-size="14" font-family="-apple-system, BlinkMacSystemFont, 'Segoe UI', system-ui, sans-serif" font-weight="700">❓ User Question</text>
  <rect x="105" y="213" width="210" height="54" rx="12" fill="url(#g-gray)" stroke="#8b949e" stroke-width="1.5" filter="url(#shadow)"/>
  <text x="210" y="240" text-anchor="middle" dominant-baseline="middle" fill="#e6edf3" font-size="14" font-family="-apple-system, BlinkMacSystemFont, 'Segoe UI', system-ui, sans-serif" font-weight="700">🧠 Embed Question</text>
  <rect x="105" y="338" width="210" height="54" rx="12" fill="url(#g-orange)" stroke="#f0883e" stroke-width="1.5" filter="url(#shadow)"/>
  <text x="210" y="365" text-anchor="middle" dominant-baseline="middle" fill="#e6edf3" font-size="14" font-family="-apple-system, BlinkMacSystemFont, 'Segoe UI', system-ui, sans-serif" font-weight="700">🔍 Similarity Search</text>
  <rect x="300" y="478" width="280" height="58" fill="url(#g-purple)" stroke="#bc8cff" stroke-width="1.5" filter="url(#shadow)"/>
  <ellipse cx="440" cy="478" rx="140" ry="14" fill="url(#g-purple)" stroke="#bc8cff" stroke-width="1.5"/>
  <ellipse cx="440" cy="529" rx="140" ry="9" fill="url(#g-purple)" stroke="#bc8cff" stroke-width="1.2" opacity="0.8"/>
  <text x="440" y="507" text-anchor="middle" dominant-baseline="middle" fill="#e6edf3" font-size="14" font-family="-apple-system, BlinkMacSystemFont, 'Segoe UI', system-ui, sans-serif" font-weight="700">🗄️ PostgreSQL + pgvector</text>
  <rect x="105" y="623" width="210" height="54" rx="12" fill="url(#g-orange)" stroke="#f0883e" stroke-width="1.5" filter="url(#shadow)"/>
  <text x="210" y="650" text-anchor="middle" dominant-baseline="middle" fill="#e6edf3" font-size="14" font-family="-apple-system, BlinkMacSystemFont, 'Segoe UI', system-ui, sans-serif" font-weight="700">📋 Top Passages + Prompt</text>
  <rect x="105" y="748" width="210" height="54" rx="12" fill="url(#g-gray)" stroke="#8b949e" stroke-width="1.5" filter="url(#shadow)"/>
  <text x="210" y="775" text-anchor="middle" dominant-baseline="middle" fill="#e6edf3" font-size="14" font-family="-apple-system, BlinkMacSystemFont, 'Segoe UI', system-ui, sans-serif" font-weight="700">🤖 LLM</text>
  <rect x="105" y="873" width="210" height="54" rx="12" fill="url(#g-green)" stroke="#3fb950" stroke-width="1.5" filter="url(#shadow)"/>
  <text x="210" y="900" text-anchor="middle" dominant-baseline="middle" fill="#e6edf3" font-size="14" font-family="-apple-system, BlinkMacSystemFont, 'Segoe UI', system-ui, sans-serif" font-weight="700">✅ Answer + Citations</text>
  <line x1="670" y1="147" x2="670" y2="213" stroke="#f0883e" stroke-width="2" marker-end="url(#arr-orange)"/>
  <line x1="670" y1="267" x2="670" y2="338" stroke="#f0883e" stroke-width="2" marker-end="url(#arr-orange)"/>
  <path d="M 670 392 C 670 440 530 440 580 500" fill="none" stroke="#6e7681" stroke-width="2" marker-end="url(#arr-dim)"/>
  <line x1="210" y1="147" x2="210" y2="213" stroke="#58a6ff" stroke-width="2" marker-end="url(#arr)"/>
  <line x1="210" y1="267" x2="210" y2="338" stroke="#58a6ff" stroke-width="2" marker-end="url(#arr)"/>
  <path d="M 210 392 C 210 440 350 440 300 500" fill="none" stroke="#58a6ff" stroke-width="2" marker-end="url(#arr)"/>
  <path d="M 340 536 C 260 590 210 590 210 623" fill="none" stroke="#58a6ff" stroke-width="2" marker-end="url(#arr)"/>
  <line x1="210" y1="677" x2="210" y2="748" stroke="#58a6ff" stroke-width="2" marker-end="url(#arr)"/>
  <line x1="210" y1="802" x2="210" y2="873" stroke="#58a6ff" stroke-width="2" marker-end="url(#arr)"/>
  <text x="670" y="420" text-anchor="middle" fill="#f0883e" font-size="11" font-family="-apple-system, BlinkMacSystemFont, 'Segoe UI', system-ui, sans-serif">stores vectors</text>
  <text x="210" y="420" text-anchor="middle" fill="#58a6ff" font-size="11" font-family="-apple-system, BlinkMacSystemFont, 'Segoe UI', system-ui, sans-serif">queries by similarity</text>
</svg>